<svg width="248" height="40" viewBox="0 0 248 40" fill="none" xmlns="http://www.w3.org/2000/svg">
<path d="M52.2554 30.7142V10.2857H59.5697C64.3982 10.2857 67.4554 12.2571 67.4554 16.4857V16.5999C67.4554 19.6857 65.6554 21.3142 63.2554 22.0285L68.6554 30.7142H63.7411L58.8554 22.8285H56.8554V30.7142H52.2554ZM56.8554 19.6857H59.4554C61.7697 19.6857 62.9411 18.7142 62.9411 16.7428V16.6285C62.9411 14.5428 61.6839 13.8285 59.4554 13.8285H56.8554V19.6857ZM76.5509 31.0285C72.0366 31.0285 68.7509 28.1999 68.7509 23.4285V23.1999C68.7509 18.4857 72.0938 15.4285 76.4366 15.4285C80.2938 15.4285 83.7224 17.6857 83.7224 23.0285V24.1714H72.9509C73.0652 26.6571 74.4081 28.0857 76.6652 28.0857C78.5795 28.0857 79.5223 27.2571 79.7795 25.9999H83.6938C83.2081 29.2285 80.6366 31.0285 76.5509 31.0285ZM73.0081 21.6285H79.6938C79.5509 19.3714 78.4081 18.2857 76.4366 18.2857C74.5795 18.2857 73.3223 19.5142 73.0081 21.6285ZM85.6913 30.7142V8.99993H89.8056V30.7142H85.6913ZM97.6991 31.0285C94.7849 31.0285 92.6134 29.3142 92.6134 25.3999V15.7714H96.7277V24.8285C96.7277 26.8571 97.5563 27.8285 99.3277 27.8285C101.071 27.8285 102.442 26.7428 102.442 24.5428V15.7714H106.556V30.7142H102.442V28.3714C101.671 29.8857 100.156 31.0285 97.6991 31.0285ZM109.365 30.7142V15.7714H113.508V18.0571C114.251 16.6571 115.851 15.4285 118.079 15.4285C120.051 15.4285 121.536 16.2571 122.251 18.0285C123.451 16.2285 125.394 15.4285 127.279 15.4285C130.051 15.4285 132.194 17.1714 132.194 21.1428V30.7142H128.079V21.5999C128.079 19.6857 127.222 18.8285 125.736 18.8285C124.136 18.8285 122.851 19.8571 122.851 21.8857V30.7142H118.736V21.5999C118.736 19.6857 117.851 18.8285 116.394 18.8285C114.794 18.8285 113.508 19.8571 113.508 21.8857V30.7142H109.365ZM141.761 31.0285C137.246 31.0285 133.961 28.1999 133.961 23.4285V23.1999C133.961 18.4857 137.304 15.4285 141.646 15.4285C145.504 15.4285 148.932 17.6857 148.932 23.0285V24.1714H138.161C138.275 26.6571 139.618 28.0857 141.875 28.0857C143.789 28.0857 144.732 27.2571 144.989 25.9999H148.904C148.418 29.2285 145.846 31.0285 141.761 31.0285ZM138.218 21.6285H144.904C144.761 19.3714 143.618 18.2857 141.646 18.2857C139.789 18.2857 138.532 19.5142 138.218 21.6285Z" fill="black"/>
<path d="M156.635 30.7142V10.2857H161.263V27.0857H169.578V30.7142H156.635ZM171.508 30.7142V15.7714H175.623V30.7142H171.508ZM173.537 13.7428C172.223 13.7428 171.194 12.7714 171.194 11.4857C171.194 10.1999 172.223 9.22851 173.537 9.22851C174.88 9.22851 175.908 10.1999 175.908 11.4857C175.908 12.7714 174.88 13.7428 173.537 13.7428ZM187.487 31.0285C185.173 31.0285 183.487 29.8857 182.715 28.3428V30.7142H178.573V8.99993H182.715V18.1142C183.544 16.6857 185.287 15.4285 187.487 15.4285C191.144 15.4285 194.001 18.1428 194.001 23.0857V23.3142C194.001 28.2571 191.201 31.0285 187.487 31.0285ZM186.258 27.7999C188.544 27.7999 189.801 26.2571 189.801 23.3428V23.1142C189.801 20.0857 188.315 18.5999 186.23 18.5999C184.058 18.5999 182.573 20.1142 182.573 23.1142V23.3428C182.573 26.3428 184.001 27.7999 186.258 27.7999ZM195.907 30.7142V15.7714H200.05V18.6285C200.993 16.6285 202.45 15.5714 204.879 15.5428V19.3999C201.822 19.3714 200.05 20.3714 200.05 23.2285V30.7142H195.907ZM210.491 31.0285C207.776 31.0285 205.491 29.7142 205.491 26.5714C205.491 23.0857 208.691 21.7714 213.262 21.7714H214.948V21.1714C214.948 19.3999 214.405 18.4285 212.519 18.4285C210.891 18.4285 210.148 19.2571 209.976 20.5428H206.062C206.319 16.9999 209.119 15.4285 212.776 15.4285C216.434 15.4285 219.034 16.9142 219.034 20.9714V30.7142H215.005V28.9142C214.148 30.1142 212.834 31.0285 210.491 31.0285ZM211.719 28.1428C213.548 28.1428 214.948 27.1428 214.948 25.4857V24.2285H213.348C210.948 24.2285 209.548 24.7428 209.548 26.3428C209.548 27.4285 210.205 28.1428 211.719 28.1428ZM221.732 30.7142V15.7714H225.875V18.6285C226.818 16.6285 228.275 15.5714 230.704 15.5428V19.3999C227.647 19.3714 225.875 20.3714 225.875 23.2285V30.7142H221.732ZM234.591 35.8L237.22 29.1999L231.277 15.7714H235.734L239.363 24.7428L242.705 15.7714H246.677L238.591 35.8H234.591Z" fill="black" fill-opacity="0.3"/>
<path d="M6.6672 26.6667H13.3339V33.3334C13.3339 35.1743 14.8263 36.6667 16.6672 36.6667H33.3339C35.1748 36.6667 36.6672 35.1743 36.6672 33.3334V16.6667C36.6672 14.8258 35.1748 13.3334 33.3339 13.3334H26.6672V6.66671C26.6672 4.82576 25.1748 3.33337 23.3339 3.33337H6.6672C4.82625 3.33337 3.33386 4.82576 3.33386 6.66671V23.3334C3.33386 25.1743 4.82625 26.6667 6.6672 26.6667Z" fill="black"/>
<path fill-rule="evenodd" clip-rule="evenodd" d="M10.4764 29.5237H6.66692C3.24801 29.5237 0.47644 26.7521 0.47644 23.3332V6.66655C0.47644 3.24765 3.24801 0.476074 6.66692 0.476074H23.3336C26.7525 0.476074 29.5241 3.24765 29.5241 6.66655V10.4761H33.3336C36.7525 10.4761 39.5241 13.2477 39.5241 16.6666V33.3332C39.5241 36.7521 36.7525 39.5237 33.3336 39.5237H16.6669C13.248 39.5237 10.4764 36.7521 10.4764 33.3332V29.5237ZM6.66692 26.6666C4.82597 26.6666 3.33358 25.1742 3.33358 23.3332V6.66655C3.33358 4.8256 4.82597 3.33322 6.66692 3.33322H23.3336C25.1745 3.33322 26.6669 4.8256 26.6669 6.66655V13.3332H33.3336C35.1745 13.3332 36.6669 14.8256 36.6669 16.6666V33.3332C36.6669 35.1742 35.1745 36.6666 33.3336 36.6666H16.6669C14.826 36.6666 13.3336 35.1742 13.3336 33.3332V26.6666H6.66692Z" fill="url(#paint0_linear_3473_12066)"/>
<path d="M6.66626 6.66663H23.3329V23.3333H6.66626V6.66663Z" fill="white"/>
<defs>
<linearGradient id="paint0_linear_3473_12066" x1="0.47644" y1="0.476074" x2="40.0126" y2="4.80004" gradientUnits="userSpaceOnUse">
<stop stop-color="#FF7448"/>
<stop offset="0.567708" stop-color="#FF4848"/>
<stop offset="1" stop-color="#6248FF"/>
</linearGradient>
</defs>
</svg>
