<svg width="49" height="48" viewBox="0 0 49 48" fill="none" xmlns="http://www.w3.org/2000/svg">
<path fill-rule="evenodd" clip-rule="evenodd" d="M42.1266 14.24L41.8466 13.74C41.4854 13.1354 40.976 12.6329 40.3666 12.28L26.9466 4.54C26.339 4.1875 25.6492 4.00124 24.9466 4H24.3666C23.664 4.00124 22.9742 4.1875 22.3666 4.54L8.94662 12.3C8.34056 12.6505 7.83715 13.1539 7.48663 13.76L7.20663 14.26C6.85413 14.8677 6.66787 15.5575 6.66663 16.26V31.76C6.66787 32.4626 6.85413 33.1524 7.20663 33.76L7.48663 34.26C7.84621 34.859 8.3476 35.3604 8.94662 35.72L22.3866 43.46C22.9912 43.8198 23.683 44.0066 24.3866 44H24.9466C25.6492 43.9988 26.339 43.8126 26.9466 43.46L40.3666 35.7C40.9786 35.3574 41.484 34.852 41.8266 34.24L42.1266 33.74C42.4748 33.1306 42.6608 32.442 42.6666 31.74V16.24C42.6654 15.5375 42.4792 14.8477 42.1266 14.24ZM24.3666 8H24.9466L36.6666 14.76L24.6666 21.68L12.6666 14.76L24.3666 8ZM26.6666 39L38.3666 32.24L38.6666 31.74V18.22L26.6666 25.16V39Z" fill="black"/>
</svg>
