<svg width="120" height="48" viewBox="0 0 120 48" fill="none" xmlns="http://www.w3.org/2000/svg">
<path fill-rule="evenodd" clip-rule="evenodd" d="M33.0607 14.3569L23.1954 33.6427H13.929L18.0576 25.6498H17.8724C14.4663 30.0714 9.38427 32.9822 2.14319 33.6427V25.7605C2.14319 25.7605 6.77548 25.4869 9.49867 22.6238H2.14319V14.3571H10.41V21.1564L10.5955 21.1556L13.9736 14.3571H20.2256V21.1133L20.411 21.113L23.9159 14.3569H33.0607Z" fill="black"/>
<path d="M86.8577 31.514H89.5201V16.2319H86.8577V31.514Z" fill="black"/>
<path fill-rule="evenodd" clip-rule="evenodd" d="M72.1799 31.3579C72.7585 31.5985 73.3469 31.7188 73.9451 31.7188C74.9333 31.7188 75.8175 31.4782 76.5977 30.9971C77.3778 30.516 77.9826 29.8529 78.4117 29.0076C78.8408 28.1559 79.0553 27.1904 79.0553 26.1111C79.0553 25.0318 78.8343 24.0664 78.3922 23.2147C77.95 22.363 77.3356 21.7031 76.5489 21.2349C75.7622 20.7603 74.8682 20.5263 73.867 20.5328C73.2299 20.5328 72.6188 20.6563 72.0335 20.9034C71.4484 21.1504 70.9608 21.5015 70.5707 21.9566C70.5406 21.9913 70.5113 22.0263 70.4829 22.0616V16.2417H67.8108V31.514H70.4634L70.4581 30.0873C70.5267 30.1714 70.6001 30.2536 70.6779 30.3339C71.1005 30.7696 71.6012 31.1108 72.1799 31.3579ZM74.9105 28.8906C74.4749 29.1572 73.9775 29.2905 73.4184 29.2905C72.8657 29.2905 72.3586 29.1539 71.897 28.8809C71.4353 28.6012 71.0681 28.221 70.7949 27.7398C70.5284 27.2587 70.3951 26.7125 70.3951 26.1014C70.3887 25.4902 70.5186 24.9441 70.7852 24.463C71.0583 23.9754 71.4256 23.5983 71.8873 23.3317C72.3489 23.0586 72.8593 22.9254 73.4184 22.9319C73.9775 22.9254 74.4749 23.0554 74.9105 23.322C75.3526 23.582 75.6907 23.9559 75.9248 24.4435C76.1653 24.9246 76.2856 25.4772 76.2856 26.1014C76.2856 26.7256 76.1653 27.2782 75.9248 27.7593C75.6907 28.2405 75.3526 28.6175 74.9105 28.8906Z" fill="black"/>
<path d="M36.918 17.1587H39.9607L42.6826 27.099L45.5782 17.1587H48.1138L51.2541 26.8995L53.8677 17.1587H56.6569L52.5414 31.5143H49.918L46.7247 21.9982L43.7935 31.5143H41.1408L36.918 17.1587Z" fill="black"/>
<path fill-rule="evenodd" clip-rule="evenodd" d="M61.1504 31.7675C60.0905 31.774 59.1348 31.5399 58.2831 31.0654C57.4378 30.5842 56.7715 29.9178 56.2838 29.0661C55.8027 28.2144 55.5622 27.2424 55.5622 26.1501C55.5622 25.0903 55.8093 24.1314 56.3034 23.2732C56.7975 22.4149 57.4671 21.7453 58.3124 21.2642C59.1576 20.783 60.1003 20.5425 61.1405 20.5425C62.3108 20.5425 63.3348 20.8025 64.2125 21.3227C65.0968 21.8428 65.7567 22.5807 66.1923 23.5365C66.6344 24.4857 66.7937 25.5747 66.6702 26.8035H58.3165C58.3399 27.2931 58.462 27.7385 58.683 28.1396C58.93 28.5817 59.2746 28.9263 59.7167 29.1733C60.1589 29.4204 60.6529 29.5439 61.1991 29.5439C61.6152 29.5374 62.0021 29.4659 62.3596 29.3294C62.7172 29.1864 63.0195 28.9946 63.2666 28.754C63.5202 28.5134 63.699 28.2404 63.803 27.9349H66.5922C66.4231 28.6825 66.0851 29.3489 65.578 29.934C65.0707 30.5127 64.4337 30.9646 63.6664 31.2896C62.8993 31.6147 62.0606 31.774 61.1504 31.7675ZM58.6927 24.1216C58.5369 24.3933 58.4289 24.6858 58.3688 24.9993H63.9063C63.8661 24.6033 63.7439 24.2425 63.5397 23.9168C63.3056 23.5332 62.987 23.2374 62.584 23.0293C62.1809 22.8148 61.7257 22.7075 61.2186 22.7075C60.6789 22.7075 60.1881 22.831 59.7459 23.0781C59.3039 23.3252 58.9527 23.673 58.6927 24.1216Z" fill="black"/>
<path d="M81.0158 20.7668C81.0158 19.8956 81.214 19.1219 81.6107 18.4458C82.0072 17.7631 82.5632 17.2332 83.2784 16.8561C84 16.4725 84.842 16.2742 85.8042 16.2612V18.6311C85.3556 18.6376 84.972 18.7318 84.6534 18.9139C84.3413 19.0894 84.1008 19.3462 83.9317 19.6843C83.7762 19.9956 83.6922 20.3564 83.6798 20.7668H85.7457V23.0197H83.6782V31.514H81.0158V23.0197H79.2994V20.7668H81.0158Z" fill="black"/>
<path fill-rule="evenodd" clip-rule="evenodd" d="M96.2879 31.748C95.2021 31.748 94.2301 31.5107 93.3719 31.0361C92.5202 30.5549 91.8506 29.8918 91.363 29.0466C90.8818 28.1949 90.6412 27.2294 90.6412 26.1501C90.6412 25.0644 90.8818 24.0956 91.363 23.2439C91.8506 22.3857 92.5202 21.7193 93.3719 21.2447C94.2301 20.77 95.2021 20.5327 96.2879 20.5327C97.3801 20.5327 98.3555 20.77 99.2136 21.2447C100.078 21.7193 100.751 22.3824 101.232 23.2341C101.713 24.0858 101.957 25.0578 101.964 26.1501C101.957 27.2294 101.713 28.1949 101.232 29.0466C100.758 29.8918 100.088 30.5549 99.2233 31.0361C98.3587 31.5107 97.3801 31.748 96.2879 31.748ZM96.2879 29.3002C96.8601 29.3002 97.3672 29.1701 97.8092 28.9101C98.2514 28.6435 98.5927 28.2729 98.8333 27.7982C99.0739 27.3172 99.1941 26.7677 99.1941 26.1501C99.1941 25.526 99.0739 24.9733 98.8333 24.4922C98.5927 24.0111 98.2514 23.6405 97.8092 23.3804C97.3672 23.1139 96.8601 22.9806 96.2879 22.9806C95.7223 22.9806 95.2184 23.1139 94.7762 23.3804C94.3407 23.6405 94.0025 24.0111 93.762 24.4922C93.5215 24.9733 93.4045 25.526 93.4109 26.1501C93.4109 26.7677 93.5312 27.3172 93.7718 27.7982C94.0188 28.2729 94.3569 28.6435 94.786 28.9101C95.2216 29.1701 95.7223 29.3002 96.2879 29.3002Z" fill="black"/>
<path d="M104.841 20.7671H101.876L105.085 31.5143H107.679L109.789 24.65L112.067 31.5143H114.622L117.841 20.7671H115.159L113.333 27.4566L111.316 20.7671H108.722L106.715 27.6039L104.841 20.7671Z" fill="black"/>
</svg>
